<svg width="38" height="38" viewBox="0 0 38 38" fill="none" xmlns="http://www.w3.org/2000/svg">
<path d="M5.33765 26.5817C4.87927 26.5817 4.54545 26.432 4.33619 26.1326C4.12692 25.8332 4.10248 25.4643 4.26284 25.0258L9.11944 12.5906C9.23716 12.2638 9.46281 11.9867 9.79639 11.7593C10.13 11.532 10.4734 11.4183 10.8265 11.4183C11.1601 11.4183 11.4969 11.532 11.8369 11.7593C12.1769 11.9867 12.4058 12.2638 12.5235 12.5906L17.3588 25.0045C17.5293 25.4369 17.5063 25.8078 17.2898 26.1174C17.0732 26.427 16.7278 26.5817 16.2535 26.5817C16.0315 26.5817 15.8145 26.5121 15.6025 26.3729C15.3906 26.2336 15.2442 26.0546 15.1635 25.8358L14.0673 22.8122H7.54517L6.4216 25.8266C6.33633 26.0357 6.1923 26.2138 5.98951 26.361C5.78671 26.5082 5.56942 26.5817 5.33765 26.5817ZM8.28201 20.76H13.2513L10.8946 14.1526H10.6875L8.28201 20.76ZM23.4942 26.5817C23.0882 26.5817 22.7421 26.4386 22.4559 26.1524C22.1697 25.8662 22.0266 25.5201 22.0266 25.1141C22.0266 24.903 22.0732 24.6582 22.1663 24.3798C22.2595 24.1014 22.3712 23.8854 22.5016 23.7318L30.1442 13.568H23.4181C23.1195 13.568 22.8658 13.4635 22.6568 13.2545C22.4478 13.0455 22.3433 12.7917 22.3433 12.4931C22.3433 12.1946 22.4478 11.9408 22.6568 11.7318C22.8658 11.5228 23.1195 11.4183 23.4181 11.4183H31.3683C31.7742 11.4183 32.1203 11.5625 32.4066 11.851C32.6928 12.1394 32.8359 12.4925 32.8359 12.9103C32.8359 13.1222 32.7936 13.3629 32.7091 13.6326C32.6246 13.9023 32.5167 14.1141 32.3853 14.2682L24.7669 24.4321H31.8402C32.1388 24.4321 32.3925 24.5366 32.6015 24.7456C32.8105 24.9546 32.915 25.2084 32.915 25.5069C32.915 25.8055 32.8105 26.0592 32.6015 26.2682C32.3925 26.4772 32.1388 26.5817 31.8402 26.5817H23.4942ZM16.3794 7.76445C16.0397 7.76445 15.8065 7.6188 15.6796 7.32749C15.5527 7.03621 15.6113 6.76852 15.8554 6.52443L18.4915 3.88834C18.5443 3.83556 18.7116 3.76654 18.9935 3.68127C19.0404 3.68127 19.2121 3.7503 19.5085 3.88834L22.1446 6.52443C22.3887 6.76852 22.4473 7.03621 22.3204 7.32749C22.1935 7.6188 21.9602 7.76445 21.6205 7.76445H16.3794ZM19.0065 34.3188C18.9596 34.3188 18.7879 34.2498 18.4915 34.1117L15.8554 31.4756C15.6113 31.2315 15.5527 30.9638 15.6796 30.6726C15.8065 30.3812 16.0397 30.2356 16.3794 30.2356H21.6205C21.9602 30.2356 22.1935 30.3812 22.3204 30.6726C22.4473 30.9638 22.3887 31.2315 22.1446 31.4756L19.5085 34.1117C19.4557 34.1645 19.2884 34.2335 19.0065 34.3188Z" fill="white"/>
</svg>
