<svg width="38" height="38" viewBox="0 0 38 38" fill="none" xmlns="http://www.w3.org/2000/svg">
<path d="M19.7125 24.7457C18.8153 24.7619 17.946 24.6442 17.1046 24.3925C16.2632 24.1408 15.5329 23.7054 14.9138 23.0862C14.3657 22.5382 13.9455 21.9165 13.6532 21.2213C13.3609 20.526 13.2147 19.7937 13.2147 19.0243C13.2147 18.7199 13.233 18.4271 13.2695 18.1459C13.3061 17.8648 13.3741 17.5851 13.4735 17.307C13.5588 17.0513 13.5522 16.798 13.4537 16.5473C13.3553 16.2967 13.1914 16.1206 12.962 16.0191C12.7164 15.9176 12.4723 15.9201 12.2297 16.0267C11.9872 16.1333 11.8233 16.3144 11.738 16.5702C11.6061 16.966 11.5046 17.3644 11.4335 17.7653C11.3625 18.1662 11.3269 18.5778 11.3269 19C11.3269 20.0251 11.5238 21.004 11.9176 21.9368C12.3114 22.8695 12.8676 23.6952 13.5862 24.4138C14.3495 25.2034 15.2558 25.7708 16.3053 26.1159C17.3548 26.4609 18.4296 26.6416 19.5299 26.6578L18.4306 27.7571C18.2439 27.9438 18.148 28.1625 18.1429 28.4132C18.1378 28.6639 18.2337 28.8877 18.4306 29.0846C18.6275 29.2815 18.8488 29.3799 19.0944 29.3799C19.34 29.3799 19.5613 29.2815 19.7582 29.0846L22.2306 26.6122C22.5168 26.3259 22.6599 25.992 22.6599 25.6104C22.6599 25.2288 22.5168 24.8949 22.2306 24.6087L19.7582 22.1362C19.5714 21.9495 19.3527 21.8536 19.102 21.8485C18.8513 21.8434 18.6275 21.9393 18.4306 22.1362C18.2337 22.3331 18.1353 22.5544 18.1353 22.8C18.1353 23.0456 18.2337 23.2669 18.4306 23.4638L19.7125 24.7457ZM18.2783 13.2299C19.1756 13.2299 20.0489 13.3558 20.8985 13.6075C21.748 13.8592 22.4823 14.2946 23.1015 14.9138C23.6495 15.4618 24.0697 16.0835 24.362 16.7787C24.6544 17.474 24.8005 18.2063 24.8005 18.9757C24.8005 19.2801 24.7822 19.5729 24.7457 19.8541C24.7092 20.1352 24.6412 20.4149 24.5417 20.693C24.4564 20.9487 24.463 21.206 24.5615 21.4648C24.6599 21.7236 24.8238 21.9038 25.0532 22.0053C25.2988 22.1068 25.5429 22.1068 25.7855 22.0053C26.0281 21.9038 26.192 21.7252 26.2772 21.4694C26.4092 21.0736 26.5107 20.6686 26.5817 20.2545C26.6528 19.8404 26.6883 19.4222 26.6883 19C26.6883 17.9749 26.4995 16.996 26.122 16.0632C25.7444 15.1305 25.1882 14.2967 24.4534 13.5619C23.6739 12.7723 22.7594 12.2089 21.7099 11.872C20.6604 11.535 19.5856 11.3665 18.4854 11.3665L19.609 10.2429C19.7795 10.0562 19.8673 9.83746 19.8723 9.58677C19.8774 9.3361 19.7815 9.11231 19.5846 8.9154C19.3877 8.71851 19.1664 8.62007 18.9208 8.62007C18.6752 8.62007 18.454 8.71851 18.2571 8.9154L15.7846 11.3879C15.4984 11.6741 15.3553 12.008 15.3553 12.3896C15.3553 12.7712 15.4984 13.1051 15.7846 13.3913L18.2571 15.8638C18.4438 16.0505 18.6625 16.1464 18.9132 16.1515C19.1639 16.1566 19.3877 16.0607 19.5846 15.8638C19.7815 15.6669 19.8799 15.4456 19.8799 15.2C19.8799 14.9544 19.7815 14.7331 19.5846 14.5362L18.2783 13.2299ZM19 34.0416C16.9214 34.0416 14.9671 33.6463 13.1371 32.8556C11.3072 32.065 9.7152 30.9927 8.36127 29.6387C7.00731 28.2848 5.93501 26.6929 5.14437 24.8629C4.35371 23.0329 3.95837 21.0786 3.95837 19C3.95837 16.9214 4.35371 14.9671 5.14437 13.1371C5.93501 11.3072 7.00731 9.7152 8.36127 8.36127C9.7152 7.00731 11.3072 5.93501 13.1371 5.14437C14.9671 4.35371 16.9214 3.95837 19 3.95837C21.0786 3.95837 23.0329 4.35371 24.8629 5.14437C26.6929 5.93501 28.2848 7.00731 29.6387 8.36127C30.9927 9.7152 32.065 11.3072 32.8556 13.1371C33.6463 14.9671 34.0416 16.9214 34.0416 19C34.0416 21.0786 33.6463 23.0329 32.8556 24.8629C32.065 26.6929 30.9927 28.2848 29.6387 29.6387C28.2848 30.9927 26.6929 32.065 24.8629 32.8556C23.0329 33.6463 21.0786 34.0416 19 34.0416ZM19 31.6667C22.5361 31.6667 25.5313 30.4396 27.9854 27.9854C30.4396 25.5313 31.6667 22.5361 31.6667 19C31.6667 15.4639 30.4396 12.4688 27.9854 10.0146C25.5313 7.56042 22.5361 6.33334 19 6.33334C15.4639 6.33334 12.4688 7.56042 10.0146 10.0146C7.56042 12.4688 6.33333 15.4639 6.33333 19C6.33333 22.5361 7.56042 25.5313 10.0146 27.9854C12.4688 30.4396 15.4639 31.6667 19 31.6667Z" fill="white"/>
</svg>
