<svg width="33" height="32" viewBox="0 0 33 32" fill="none" xmlns="http://www.w3.org/2000/svg">
<path d="M7.5 18.5154C7.5 18.1051 7.67691 17.809 8.03074 17.6269C8.38458 17.4449 8.72817 17.4709 9.0615 17.7051L16.5 23.0257L23.9384 17.7051C24.2718 17.4709 24.6154 17.4449 24.9692 17.6269C25.323 17.809 25.4999 18.1051 25.4999 18.5154C25.4999 18.7085 25.4559 18.8773 25.3679 19.0218C25.2799 19.1662 25.164 19.288 25.0205 19.3872L17.1897 24.9564C17.0871 25.0367 16.9777 25.0948 16.8615 25.1307C16.7453 25.1666 16.6247 25.1846 16.5 25.1846C16.3752 25.1846 16.2581 25.1666 16.1487 25.1307C16.0393 25.0948 15.9265 25.0367 15.8102 24.9564L7.97947 19.3872C7.83589 19.288 7.72008 19.1662 7.63204 19.0218C7.54402 18.8773 7.5 18.7085 7.5 18.5154ZM7.5 10.6846C7.5 10.2744 7.67691 9.97823 8.03074 9.79616C8.38458 9.61411 8.72817 9.64018 9.0615 9.87436L16.5 15.1949L23.9384 9.87436C24.2718 9.64018 24.6154 9.61412 24.9692 9.79616C25.323 9.97823 25.4999 10.2744 25.4999 10.6846C25.4999 10.8778 25.4559 11.0444 25.3679 11.1846C25.2799 11.3248 25.164 11.4487 25.0205 11.5564L17.1897 17.1256C17.0871 17.206 16.9777 17.2641 16.8615 17.3C16.7453 17.3359 16.6247 17.3538 16.5 17.3538C16.3752 17.3538 16.2547 17.3359 16.1384 17.3C16.0222 17.2641 15.9128 17.206 15.8102 17.1256L7.97947 11.5564C7.83589 11.4572 7.72008 11.3354 7.63204 11.191C7.54402 11.0466 7.5 10.8778 7.5 10.6846Z" fill="white"/>
</svg>
