<svg width="114" height="116" viewBox="0 0 114 116" fill="none" xmlns="http://www.w3.org/2000/svg">
<path d="M52.4843 1.81233C55.0922 -0.389367 58.9078 -0.389366 61.5157 1.81233L65.7196 5.36147C67.4525 6.8245 69.7868 7.3573 71.9829 6.79105L77.3105 5.41739C80.6153 4.56525 84.053 6.22075 85.4474 9.33593L87.6951 14.3576C88.6216 16.4276 90.4936 17.9205 92.7179 18.3632L98.1138 19.4371C101.461 20.1033 103.84 23.0864 103.745 26.498L103.591 31.9976C103.528 34.2647 104.567 36.422 106.378 37.7859L110.774 41.0946C113.501 43.1472 114.35 46.8671 112.784 49.8995L110.259 54.7878C109.218 56.8028 109.218 59.1972 110.259 61.2122L112.784 66.1005C114.35 69.1329 113.501 72.8528 110.774 74.9054L106.378 78.2141C104.567 79.578 103.528 81.7353 103.591 84.0024L103.745 89.502C103.84 92.9136 101.461 95.8967 98.1138 96.5629L92.7179 97.6368C90.4936 98.0795 88.6216 99.5724 87.6951 101.642L85.4474 106.664C84.053 109.779 80.6153 111.435 77.3104 110.583L71.9829 109.209C69.7868 108.643 67.4525 109.175 65.7196 110.639L61.5157 114.188C58.9078 116.389 55.0922 116.389 52.4843 114.188L48.2804 110.639C46.5475 109.175 44.2132 108.643 42.017 109.209L36.6896 110.583C33.3847 111.435 29.947 109.779 28.5526 106.664L26.3049 101.642C25.3784 99.5724 23.5064 98.0795 21.2821 97.6368L15.8862 96.5629C12.5388 95.8967 10.1599 92.9136 10.2552 89.502L10.409 84.0024C10.4724 81.7353 9.43348 79.578 7.62151 78.2141L3.2259 74.9054C0.499098 72.8528 -0.349942 69.1329 1.21625 66.1005L3.74094 61.2122C4.78168 59.1972 4.78168 56.8028 3.74094 54.7878L1.21625 49.8995C-0.349942 46.8671 0.499098 43.1472 3.2259 41.0946L7.62151 37.7859C9.43348 36.422 10.4724 34.2647 10.409 31.9976L10.2552 26.498C10.1599 23.0864 12.5388 20.1033 15.8862 19.4371L21.2821 18.3632C23.5064 17.9205 25.3784 16.4276 26.3049 14.3576L28.5526 9.33593C29.947 6.22075 33.3846 4.56525 36.6895 5.41739L42.0171 6.79105C44.2132 7.3573 46.5475 6.8245 48.2804 5.36147L52.4843 1.81233Z" fill="#FF4343"/>
</svg>
