<svg width="68" height="49" viewBox="0 0 68 49" fill="none" xmlns="http://www.w3.org/2000/svg">
<path d="M12.7244 5.54545H15.8864V16.9489C15.8864 18.1989 15.5909 19.2983 15 20.2472C14.4148 21.196 13.5909 21.9375 12.5284 22.4716C11.4659 23 10.2244 23.2642 8.80398 23.2642C7.37784 23.2642 6.13352 23 5.07102 22.4716C4.00852 21.9375 3.18466 21.196 2.59943 20.2472C2.0142 19.2983 1.72159 18.1989 1.72159 16.9489V5.54545H4.88352V16.6847C4.88352 17.4119 5.04261 18.0597 5.3608 18.6278C5.68466 19.196 6.1392 19.642 6.72443 19.9659C7.30966 20.2841 8.00284 20.4432 8.80398 20.4432C9.60511 20.4432 10.2983 20.2841 10.8835 19.9659C11.4744 19.642 11.929 19.196 12.2472 18.6278C12.5653 18.0597 12.7244 17.4119 12.7244 16.6847V5.54545ZM21.9652 5.54545L25.8089 11.9375H25.9453L29.8061 5.54545H33.4112L28.0334 14.2727L33.4964 23H29.8317L25.9453 16.6506H25.8089L21.9226 23H18.2749L23.7891 14.2727L18.343 5.54545H21.9652ZM42.8821 4.72727L37.2571 25.625H34.5554L40.1804 4.72727H42.8821ZM55.9901 5.54545H59.152V16.9489C59.152 18.1989 58.8565 19.2983 58.2656 20.2472C57.6804 21.196 56.8565 21.9375 55.794 22.4716C54.7315 23 53.4901 23.2642 52.0696 23.2642C50.6435 23.2642 49.3991 23 48.3366 22.4716C47.2741 21.9375 46.4503 21.196 45.8651 20.2472C45.2798 19.2983 44.9872 18.1989 44.9872 16.9489V5.54545H48.1491V16.6847C48.1491 17.4119 48.3082 18.0597 48.6264 18.6278C48.9503 19.196 49.4048 19.642 49.9901 19.9659C50.5753 20.2841 51.2685 20.4432 52.0696 20.4432C52.8707 20.4432 53.5639 20.2841 54.1491 19.9659C54.7401 19.642 55.1946 19.196 55.5128 18.6278C55.831 18.0597 55.9901 17.4119 55.9901 16.6847V5.54545ZM65.7507 5.54545V23H62.5888V5.54545H65.7507Z" fill="white"/>
<path d="M1.23295 46V35.8182H2.46591V40.8693H2.58523L7.15909 35.8182H8.76989L4.49432 40.4119L8.76989 46H7.27841L3.73864 41.267L2.46591 42.6989V46H1.23295ZM14.5407 42.8778V38.3636H15.714V46H14.5407V44.7074H14.4611C14.2821 45.0952 14.0037 45.425 13.6259 45.6967C13.248 45.9652 12.7708 46.0994 12.1941 46.0994C11.7168 46.0994 11.2926 45.995 10.9213 45.7862C10.5501 45.5741 10.2585 45.2559 10.0463 44.8317C9.83422 44.4041 9.72816 43.8655 9.72816 43.2159V38.3636H10.9015V43.1364C10.9015 43.6932 11.0572 44.1373 11.3688 44.4688C11.6837 44.8002 12.0847 44.9659 12.5719 44.9659C12.8636 44.9659 13.1602 44.8913 13.4618 44.7422C13.7667 44.593 14.022 44.3643 14.2275 44.0561C14.4363 43.7479 14.5407 43.3551 14.5407 42.8778ZM17.8629 46V38.3636H18.9964V39.517H19.076C19.2152 39.1392 19.4671 38.8326 19.8317 38.5973C20.1963 38.362 20.6072 38.2443 21.0646 38.2443C21.1508 38.2443 21.2585 38.246 21.3878 38.2493C21.517 38.2526 21.6148 38.2576 21.6811 38.2642V39.4574C21.6413 39.4474 21.5502 39.4325 21.4077 39.4126C21.2685 39.3894 21.121 39.3778 20.9652 39.3778C20.594 39.3778 20.2625 39.4557 19.9709 39.6115C19.6825 39.764 19.4538 39.9761 19.2848 40.2479C19.1191 40.5163 19.0362 40.8229 19.0362 41.1676V46H17.8629ZM28.481 40.0739L27.427 40.3722C27.3607 40.1965 27.263 40.0258 27.1337 39.8601C27.0078 39.6911 26.8354 39.5518 26.6167 39.4425C26.3979 39.3331 26.1178 39.2784 25.7765 39.2784C25.3091 39.2784 24.9197 39.3861 24.6081 39.6016C24.2999 39.8137 24.1458 40.0838 24.1458 40.4119C24.1458 40.7036 24.2518 40.9339 24.464 41.103C24.6761 41.272 25.0075 41.4129 25.4583 41.5256L26.5918 41.804C27.2746 41.9697 27.7833 42.2232 28.1181 42.5646C28.4528 42.9027 28.6202 43.3385 28.6202 43.8722C28.6202 44.3097 28.4943 44.7008 28.2424 45.0455C27.9938 45.3902 27.6458 45.6619 27.1983 45.8608C26.7509 46.0597 26.2305 46.1591 25.6373 46.1591C24.8584 46.1591 24.2137 45.9901 23.7033 45.652C23.1929 45.3139 22.8697 44.8201 22.7338 44.1705L23.8475 43.892C23.9535 44.303 24.1541 44.6113 24.449 44.8168C24.7473 45.0223 25.1368 45.125 25.6174 45.125C26.1642 45.125 26.5984 45.009 26.9199 44.777C27.2447 44.5417 27.4071 44.2599 27.4071 43.9318C27.4071 43.6667 27.3143 43.4446 27.1287 43.2656C26.9431 43.0833 26.6581 42.9474 26.2736 42.858L25.0009 42.5597C24.3016 42.3939 23.7878 42.1371 23.4597 41.7891C23.1349 41.4377 22.9725 40.9986 22.9725 40.4716C22.9725 40.0407 23.0935 39.6596 23.3354 39.3281C23.5807 38.9967 23.9138 38.7365 24.3347 38.5476C24.7589 38.3587 25.2395 38.2642 25.7765 38.2642C26.5321 38.2642 27.1254 38.4299 27.5563 38.7614C27.9905 39.0928 28.2987 39.5303 28.481 40.0739ZM30.3864 46V38.3636H31.5597V46H30.3864ZM30.983 37.0909C30.7543 37.0909 30.5571 37.013 30.3913 36.8572C30.2289 36.7015 30.1477 36.5142 30.1477 36.2955C30.1477 36.0767 30.2289 35.8894 30.3913 35.7337C30.5571 35.5779 30.7543 35.5 30.983 35.5C31.2116 35.5 31.4072 35.5779 31.5696 35.7337C31.7353 35.8894 31.8182 36.0767 31.8182 36.2955C31.8182 36.5142 31.7353 36.7015 31.5696 36.8572C31.4072 37.013 31.2116 37.0909 30.983 37.0909Z" fill="white"/>
</svg>
