<svg width="38" height="38" viewBox="0 0 38 38" fill="none" xmlns="http://www.w3.org/2000/svg">
<path d="M19 12.8798C18.1901 12.8798 17.5004 12.5951 16.931 12.0257C16.3617 11.4563 16.077 10.7667 16.077 9.95672C16.077 9.1468 16.3617 8.45714 16.931 7.88774C17.5004 7.31838 18.1901 7.03369 19 7.03369C19.81 7.03369 20.4996 7.31838 21.069 7.88774C21.6384 8.45714 21.9231 9.1468 21.9231 9.95672C21.9231 10.7667 21.6384 11.4563 21.069 12.0257C20.4996 12.5951 19.81 12.8798 19 12.8798ZM10.7667 31.1185C10.0765 31.1185 9.49496 30.8922 9.02202 30.4395C8.54905 29.9869 8.31257 29.4155 8.31257 28.7253C8.31257 28.2422 8.4506 27.8022 8.72665 27.4053C9.00273 27.0085 9.36405 26.7198 9.8106 26.5391L16.2292 23.9936V19.2435C14.7088 21.0095 13.1848 22.3391 11.6573 23.2323C10.1298 24.1255 8.41709 24.6979 6.51913 24.9496C6.18217 24.9922 5.88936 24.8958 5.64069 24.6604C5.39203 24.4249 5.2677 24.1174 5.2677 23.7378C5.2677 23.4435 5.37326 23.1867 5.58437 22.9674C5.79548 22.7482 6.05631 22.6173 6.36685 22.5747C7.83449 22.39 9.19708 21.9312 10.4546 21.1984C11.7122 20.4656 12.8677 19.4851 13.9212 18.257L16.0587 15.7542C16.3348 15.4355 16.6585 15.1914 17.03 15.0219C17.4015 14.8524 17.7943 14.7676 18.2084 14.7676H19.7917C20.2058 14.7676 20.5986 14.8524 20.9701 15.0219C21.3415 15.1914 21.6653 15.4355 21.9413 15.7542L24.0788 18.257C25.1324 19.4851 26.2879 20.4656 27.5454 21.1984C28.803 21.9312 30.1656 22.39 31.6332 22.5747C31.9438 22.6173 32.2046 22.7523 32.4157 22.9796C32.6268 23.207 32.7324 23.4678 32.7324 23.7622C32.7324 24.1255 32.608 24.4249 32.3594 24.6604C32.1107 24.8958 31.8179 24.9922 31.4809 24.9496C29.583 24.6979 27.8702 24.1255 26.3427 23.2323C24.8152 22.3391 23.2912 21.0095 21.7708 19.2435V23.9936L28.1895 26.5391C28.636 26.7198 28.9973 27.0085 29.2734 27.4053C29.5495 27.8022 29.6875 28.2422 29.6875 28.7253C29.6875 29.4155 29.451 29.9869 28.978 30.4395C28.5051 30.8922 27.9235 31.1185 27.2334 31.1185H15.8334V30.6009C15.8334 29.9452 16.0348 29.4159 16.4378 29.013C16.8407 28.6101 17.37 28.4086 18.0256 28.4086H22.9584C23.1959 28.4086 23.3872 28.336 23.5323 28.1909C23.6775 28.0458 23.75 27.8544 23.75 27.6169C23.75 27.3794 23.6775 27.1881 23.5323 27.043C23.3872 26.8978 23.1959 26.8253 22.9584 26.8253H18.0256C16.9478 26.8253 16.049 27.1851 15.3294 27.9047C14.6098 28.6243 14.25 29.523 14.25 30.6009V31.1185H10.7667Z" fill="white"/>
</svg>
