<svg width="954" height="143" viewBox="0 0 954 143" fill="none" xmlns="http://www.w3.org/2000/svg">
<rect x="22.9547" y="5.52213" width="465.523" height="100.083" rx="7.34552" fill="#252C33"/>
<rect x="23.9547" y="6.52213" width="463.523" height="98.0828" rx="6.34552" stroke="white" stroke-opacity="0.3" stroke-width="2"/>
<path d="M48.718 78.3585V25.2676H56.7283V48.3393H83.196V25.2676H91.2322V78.3585H83.196V55.209H56.7283V78.3585H48.718ZM113.863 79.2399C111.34 79.2399 109.059 78.7733 107.019 77.84C104.98 76.8895 103.364 75.5156 102.172 73.7182C100.997 71.9209 100.409 69.7174 100.409 67.1078C100.409 64.8611 100.841 63.0119 101.705 61.5602C102.569 60.1085 103.736 58.9592 105.205 58.1124C106.674 57.2656 108.316 56.6261 110.13 56.1941C111.945 55.762 113.794 55.4337 115.678 55.209C118.063 54.9325 119.998 54.7078 121.485 54.535C122.971 54.3449 124.051 54.0425 124.725 53.6277C125.399 53.2129 125.736 52.5389 125.736 51.6057V51.4242C125.736 49.1602 125.097 47.4061 123.818 46.1618C122.556 44.9175 120.672 44.2953 118.167 44.2953C115.557 44.2953 113.5 44.8743 111.997 46.0322C110.51 47.1728 109.482 48.443 108.912 49.8429L101.627 48.1838C102.492 45.7643 103.753 43.8114 105.412 42.3251C107.089 40.8216 109.016 39.7328 111.193 39.0588C113.371 38.3675 115.661 38.0219 118.063 38.0219C119.653 38.0219 121.338 38.212 123.118 38.5922C124.915 38.9551 126.592 39.6291 128.147 40.6142C129.72 41.5993 131.007 43.0078 132.01 44.8397C133.012 46.6543 133.513 49.0133 133.513 51.9167V78.3585H125.943V72.9146H125.632C125.131 73.917 124.379 74.9021 123.377 75.8699C122.375 76.8377 121.087 77.6413 119.515 78.2807C117.942 78.9202 116.058 79.2399 113.863 79.2399ZM115.548 73.0183C117.691 73.0183 119.523 72.5949 121.044 71.7481C122.582 70.9012 123.749 69.7952 124.544 68.4299C125.356 67.0473 125.762 65.5697 125.762 63.997V58.8642C125.486 59.1407 124.95 59.3999 124.155 59.6419C123.377 59.8666 122.487 60.0653 121.485 60.2381C120.482 60.3937 119.506 60.5406 118.555 60.6788C117.605 60.7998 116.81 60.9035 116.17 60.9899C114.667 61.18 113.293 61.4997 112.049 61.9491C110.822 62.3984 109.836 63.0465 109.093 63.8933C108.367 64.7229 108.005 65.8289 108.005 67.2115C108.005 69.1298 108.713 70.5815 110.13 71.5666C111.547 72.5344 113.353 73.0183 115.548 73.0183ZM147.311 93.2903C146.153 93.2903 145.099 93.1953 144.148 93.0052C143.198 92.8323 142.489 92.6422 142.022 92.4349L143.889 86.0837C145.306 86.4639 146.568 86.628 147.674 86.5762C148.78 86.5243 149.756 86.1096 150.603 85.3319C151.467 84.5542 152.228 83.2839 152.884 81.5212L153.843 78.877L139.275 38.5403H147.57L157.654 69.4409H158.069L168.153 38.5403H176.474L160.065 83.6728C159.305 85.7466 158.337 87.5008 157.162 88.9352C155.986 90.3869 154.587 91.4757 152.962 92.2015C151.338 92.9274 149.454 93.2903 147.311 93.2903ZM199.177 79.1621C195.444 79.1621 192.186 78.3067 189.404 76.5957C186.621 74.8848 184.461 72.4912 182.923 69.415C181.385 66.3387 180.616 62.744 180.616 58.6309C180.616 54.5004 181.385 50.8885 182.923 47.7949C184.461 44.7014 186.621 42.2992 189.404 40.5883C192.186 38.8773 195.444 38.0219 199.177 38.0219C202.91 38.0219 206.167 38.8773 208.95 40.5883C211.732 42.2992 213.893 44.7014 215.431 47.7949C216.969 50.8885 217.738 54.5004 217.738 58.6309C217.738 62.744 216.969 66.3387 215.431 69.415C213.893 72.4912 211.732 74.8848 208.95 76.5957C206.167 78.3067 202.91 79.1621 199.177 79.1621ZM199.203 72.6554C201.622 72.6554 203.627 72.0159 205.217 70.7371C206.807 69.4582 207.982 67.7559 208.742 65.6302C209.52 63.5045 209.909 61.1627 209.909 58.605C209.909 56.0645 209.52 53.7314 208.742 51.6057C207.982 49.4627 206.807 47.7431 205.217 46.4469C203.627 45.1508 201.622 44.5027 199.203 44.5027C196.766 44.5027 194.744 45.1508 193.137 46.4469C191.547 47.7431 190.363 49.4627 189.585 51.6057C188.825 53.7314 188.445 56.0645 188.445 58.605C188.445 61.1627 188.825 63.5045 189.585 65.6302C190.363 67.7559 191.547 69.4582 193.137 70.7371C194.744 72.0159 196.766 72.6554 199.203 72.6554ZM244.977 38.5403V44.7619H223.227V38.5403H244.977ZM229.06 29.0006H236.811V66.6671C236.811 68.1707 237.036 69.3026 237.485 70.0631C237.934 70.8062 238.513 71.316 239.222 71.5925C239.948 71.8518 240.734 71.9814 241.581 71.9814C242.203 71.9814 242.747 71.9382 243.214 71.8518C243.681 71.7654 244.044 71.6962 244.303 71.6444L245.703 78.0474C245.253 78.2203 244.614 78.3931 243.784 78.5659C242.955 78.756 241.918 78.8597 240.674 78.877C238.634 78.9115 236.733 78.5486 234.97 77.7882C233.208 77.0278 231.782 75.8526 230.693 74.2626C229.604 72.6727 229.06 70.6766 229.06 68.2743V29.0006ZM253.551 78.3585V38.5403H261.302V78.3585H253.551ZM257.465 32.3965C256.117 32.3965 254.959 31.9472 253.992 31.0485C253.041 30.1325 252.566 29.0438 252.566 27.7822C252.566 26.5033 253.041 25.4145 253.992 24.5158C254.959 23.5999 256.117 23.1419 257.465 23.1419C258.813 23.1419 259.963 23.5999 260.913 24.5158C261.881 25.4145 262.365 26.5033 262.365 27.7822C262.365 29.0438 261.881 30.1325 260.913 31.0485C259.963 31.9472 258.813 32.3965 257.465 32.3965ZM279.481 54.7165V78.3585H271.73V38.5403H279.17V45.0211H279.662C280.578 42.9127 282.013 41.2191 283.965 39.9402C285.936 38.6613 288.416 38.0219 291.405 38.0219C294.119 38.0219 296.495 38.5922 298.534 39.7328C300.574 40.8561 302.155 42.5325 303.278 44.7619C304.402 46.9913 304.963 49.7478 304.963 53.0314V78.3585H297.212V53.9647C297.212 51.0786 296.46 48.8232 294.957 47.1987C293.453 45.5569 291.388 44.736 288.761 44.736C286.964 44.736 285.365 45.1248 283.965 45.9025C282.583 46.6802 281.485 47.8209 280.673 49.3244C279.878 50.8107 279.481 52.608 279.481 54.7165ZM332.053 94.1199C328.89 94.1199 326.169 93.7051 323.887 92.8756C321.623 92.046 319.774 90.9486 318.34 89.5833C316.905 88.218 315.834 86.7231 315.125 85.0986L321.788 82.3507C322.254 83.1111 322.876 83.9147 323.654 84.7616C324.449 85.6257 325.52 86.3602 326.868 86.965C328.234 87.5699 329.988 87.8724 332.131 87.8724C335.069 87.8724 337.497 87.1551 339.415 85.7207C341.334 84.3036 342.293 82.0396 342.293 78.9288V71.1H341.8C341.334 71.9468 340.66 72.8887 339.778 73.9256C338.914 74.9626 337.722 75.8612 336.201 76.6216C334.68 77.3821 332.701 77.7623 330.264 77.7623C327.119 77.7623 324.285 77.0278 321.762 75.5588C319.256 74.0725 317.268 71.8863 315.799 69.0002C314.348 66.0968 313.622 62.528 313.622 58.2939C313.622 54.0597 314.339 50.4305 315.773 47.4061C317.225 44.3817 319.212 42.0659 321.736 40.4587C324.259 38.8341 327.119 38.0219 330.316 38.0219C332.788 38.0219 334.784 38.4366 336.305 39.2662C337.825 40.0784 339.009 41.029 339.856 42.1177C340.72 43.2065 341.386 44.1657 341.852 44.9952H342.422V38.5403H350.018V79.2399C350.018 82.6618 349.223 85.4701 347.633 87.665C346.043 89.8598 343.891 91.4843 341.178 92.5386C338.482 93.5928 335.44 94.1199 332.053 94.1199ZM331.975 71.3333C334.205 71.3333 336.089 70.8148 337.627 69.7779C339.182 68.7237 340.357 67.2201 341.152 65.2672C341.964 63.2971 342.371 60.9381 342.371 58.1902C342.371 55.5114 341.973 53.1524 341.178 51.1131C340.383 49.0738 339.217 47.4839 337.678 46.3432C336.14 45.1853 334.239 44.6064 331.975 44.6064C329.642 44.6064 327.698 45.2113 326.143 46.421C324.587 47.6135 323.412 49.238 322.617 51.2946C321.839 53.3512 321.451 55.6497 321.451 58.1902C321.451 60.7998 321.848 63.0897 322.643 65.0599C323.438 67.03 324.613 68.5681 326.169 69.6742C327.741 70.7803 329.677 71.3333 331.975 71.3333ZM360.413 78.3585V38.5403H368.164V78.3585H360.413ZM364.328 32.3965C362.98 32.3965 361.822 31.9472 360.854 31.0485C359.903 30.1325 359.428 29.0438 359.428 27.7822C359.428 26.5033 359.903 25.4145 360.854 24.5158C361.822 23.5999 362.98 23.1419 364.328 23.1419C365.676 23.1419 366.825 23.5999 367.775 24.5158C368.743 25.4145 369.227 26.5033 369.227 27.7822C369.227 29.0438 368.743 30.1325 367.775 31.0485C366.825 31.9472 365.676 32.3965 364.328 32.3965ZM377.762 78.3585V73.0442L399.331 45.6433V45.2804H378.462V38.5403H409V44.1916L388.261 71.2555V71.6185H409.726V78.3585H377.762ZM426.621 54.7165V78.3585H418.87V38.5403H426.31V45.0211H426.803C427.719 42.9127 429.153 41.2191 431.106 39.9402C433.076 38.6613 435.556 38.0219 438.546 38.0219C441.259 38.0219 443.636 38.5922 445.675 39.7328C447.714 40.8561 449.296 42.5325 450.419 44.7619C451.542 46.9913 452.104 49.7478 452.104 53.0314V78.3585H444.353V53.9647C444.353 51.0786 443.601 48.8232 442.098 47.1987C440.594 45.5569 438.529 44.736 435.902 44.736C434.105 44.736 432.506 45.1248 431.106 45.9025C429.723 46.6802 428.626 47.8209 427.814 49.3244C427.019 50.8107 426.621 52.608 426.621 54.7165ZM462.499 78.3585V38.5403H470.25V78.3585H462.499ZM466.414 32.3965C465.066 32.3965 463.908 31.9472 462.94 31.0485C461.989 30.1325 461.514 29.0438 461.514 27.7822C461.514 26.5033 461.989 25.4145 462.94 24.5158C463.908 23.5999 465.066 23.1419 466.414 23.1419C467.762 23.1419 468.911 23.5999 469.861 24.5158C470.829 25.4145 471.313 26.5033 471.313 27.7822C471.313 29.0438 470.829 30.1325 469.861 31.0485C468.911 31.9472 467.762 32.3965 466.414 32.3965Z" fill="white"/>
<path d="M516.77 79.1621C513.037 79.1621 509.779 78.3067 506.996 76.5957C504.214 74.8848 502.054 72.4912 500.516 69.415C498.978 66.3387 498.208 62.744 498.208 58.6309C498.208 54.5004 498.978 50.8885 500.516 47.7949C502.054 44.7014 504.214 42.2992 506.996 40.5883C509.779 38.8773 513.037 38.0219 516.77 38.0219C520.503 38.0219 523.76 38.8773 526.543 40.5883C529.325 42.2992 531.485 44.7014 533.023 47.7949C534.562 50.8885 535.331 54.5004 535.331 58.6309C535.331 62.744 534.562 66.3387 533.023 69.415C531.485 72.4912 529.325 74.8848 526.543 76.5957C523.76 78.3067 520.503 79.1621 516.77 79.1621ZM516.796 72.6554C519.215 72.6554 521.22 72.0159 522.81 70.7371C524.4 69.4582 525.575 67.7559 526.335 65.6302C527.113 63.5045 527.502 61.1627 527.502 58.605C527.502 56.0645 527.113 53.7314 526.335 51.6057C525.575 49.4627 524.4 47.7431 522.81 46.4469C521.22 45.1508 519.215 44.5027 516.796 44.5027C514.359 44.5027 512.337 45.1508 510.729 46.4469C509.139 47.7431 507.956 49.4627 507.178 51.6057C506.418 53.7314 506.037 56.0645 506.037 58.605C506.037 61.1627 506.418 63.5045 507.178 65.6302C507.956 67.7559 509.139 69.4582 510.729 70.7371C512.337 72.0159 514.359 72.6554 516.796 72.6554ZM550.645 25.2676V30.2449C550.645 31.7139 550.368 33.2606 549.815 34.8851C549.28 36.4924 548.519 38.0391 547.534 39.5254C546.549 41.0117 545.391 42.2906 544.06 43.3621L540.224 40.6142C541.243 39.1279 542.125 37.5466 542.868 35.8702C543.628 34.1939 544.008 32.3447 544.008 30.3226V25.2676H550.645ZM557.696 78.3585V73.0442L579.264 45.6433V45.2804H558.396V38.5403H588.934V44.1916L568.195 71.2555V71.6185H589.659V78.3585H557.696ZM614.358 94.1199C611.195 94.1199 608.473 93.7051 606.192 92.8756C603.928 92.046 602.079 90.9486 600.644 89.5833C599.21 88.218 598.138 86.7231 597.43 85.0986L604.092 82.3507C604.559 83.1111 605.181 83.9147 605.959 84.7616C606.754 85.6257 607.825 86.3602 609.173 86.965C610.538 87.5699 612.293 87.8724 614.436 87.8724C617.374 87.8724 619.802 87.1551 621.72 85.7207C623.638 84.3036 624.598 82.0396 624.598 78.9288V71.1H624.105C623.638 71.9468 622.964 72.8887 622.083 73.9256C621.219 74.9626 620.026 75.8612 618.506 76.6216C616.985 77.3821 615.006 77.7623 612.569 77.7623C609.424 77.7623 606.589 77.0278 604.066 75.5588C601.56 74.0725 599.573 71.8863 598.104 69.0002C596.652 66.0968 595.926 62.528 595.926 58.2939C595.926 54.0597 596.644 50.4305 598.078 47.4061C599.53 44.3817 601.517 42.0659 604.04 40.4587C606.564 38.8341 609.424 38.0219 612.621 38.0219C615.092 38.0219 617.088 38.4366 618.609 39.2662C620.13 40.0784 621.314 41.029 622.161 42.1177C623.025 43.2065 623.69 44.1657 624.157 44.9952H624.727V38.5403H632.323V79.2399C632.323 82.6618 631.528 85.4701 629.938 87.665C628.348 89.8598 626.196 91.4843 623.483 92.5386C620.787 93.5928 617.745 94.1199 614.358 94.1199ZM614.28 71.3333C616.509 71.3333 618.393 70.8148 619.931 69.7779C621.487 68.7237 622.662 67.2201 623.457 65.2672C624.269 63.2971 624.675 60.9381 624.675 58.1902C624.675 55.5114 624.278 53.1524 623.483 51.1131C622.688 49.0738 621.521 47.4839 619.983 46.3432C618.445 45.1853 616.544 44.6064 614.28 44.6064C611.947 44.6064 610.003 45.2113 608.447 46.421C606.892 47.6135 605.717 49.238 604.922 51.2946C604.144 53.3512 603.755 55.6497 603.755 58.1902C603.755 60.7998 604.153 63.0897 604.948 65.0599C605.743 67.03 606.918 68.5681 608.473 69.6742C610.046 70.7803 611.982 71.3333 614.28 71.3333ZM654.306 79.2399C651.782 79.2399 649.501 78.7733 647.462 77.84C645.423 76.8895 643.807 75.5156 642.614 73.7182C641.439 71.9209 640.851 69.7174 640.851 67.1078C640.851 64.8611 641.283 63.0119 642.148 61.5602C643.012 60.1085 644.178 58.9592 645.647 58.1124C647.116 57.2656 648.758 56.6261 650.573 56.1941C652.387 55.762 654.236 55.4337 656.12 55.209C658.505 54.9325 660.441 54.7078 661.927 54.535C663.413 54.3449 664.493 54.0425 665.167 53.6277C665.841 53.2129 666.178 52.5389 666.178 51.6057V51.4242C666.178 49.1602 665.539 47.4061 664.26 46.1618C662.999 44.9175 661.115 44.2953 658.609 44.2953C655.999 44.2953 653.943 44.8743 652.439 46.0322C650.953 47.1728 649.925 48.443 649.354 49.8429L642.07 48.1838C642.934 45.7643 644.196 43.8114 645.855 42.3251C647.531 40.8216 649.458 39.7328 651.636 39.0588C653.813 38.3675 656.103 38.0219 658.505 38.0219C660.095 38.0219 661.78 38.212 663.56 38.5922C665.358 38.9551 667.034 39.6291 668.589 40.6142C670.162 41.5993 671.45 43.0078 672.452 44.8397C673.454 46.6543 673.955 49.0133 673.955 51.9167V78.3585H666.386V72.9146H666.075C665.574 73.917 664.822 74.9021 663.819 75.8699C662.817 76.8377 661.53 77.6413 659.957 78.2807C658.384 78.9202 656.5 79.2399 654.306 79.2399ZM655.991 73.0183C658.134 73.0183 659.966 72.5949 661.486 71.7481C663.024 70.9012 664.191 69.7952 664.986 68.4299C665.798 67.0473 666.204 65.5697 666.204 63.997V58.8642C665.928 59.1407 665.392 59.3999 664.597 59.6419C663.819 59.8666 662.929 60.0653 661.927 60.2381C660.925 60.3937 659.948 60.5406 658.998 60.6788C658.047 60.7998 657.252 60.9035 656.613 60.9899C655.109 61.18 653.735 61.4997 652.491 61.9491C651.264 62.3984 650.279 63.0465 649.536 63.8933C648.81 64.7229 648.447 65.8289 648.447 67.2115C648.447 69.1298 649.156 70.5815 650.573 71.5666C651.99 72.5344 653.796 73.0183 655.991 73.0183ZM684.279 78.3585V38.5403H691.771V44.8656H692.186C692.912 42.7226 694.191 41.0376 696.023 39.8106C697.872 38.5662 699.963 37.9441 702.296 37.9441C702.78 37.9441 703.35 37.9614 704.007 37.9959C704.681 38.0305 705.208 38.0737 705.588 38.1256V45.5396C705.277 45.4532 704.724 45.3582 703.929 45.2545C703.134 45.1335 702.339 45.073 701.544 45.073C699.712 45.073 698.079 45.4618 696.645 46.2395C695.228 47 694.104 48.0628 693.275 49.4281C692.445 50.7761 692.03 52.3142 692.03 54.0425V78.3585H684.279ZM733.236 38.5403V44.7619H711.486V38.5403H733.236ZM717.319 29.0006H725.07V66.6671C725.07 68.1707 725.294 69.3026 725.744 70.0631C726.193 70.8062 726.772 71.316 727.481 71.5925C728.206 71.8518 728.993 71.9814 729.84 71.9814C730.462 71.9814 731.006 71.9382 731.473 71.8518C731.939 71.7654 732.302 71.6962 732.562 71.6444L733.961 78.0474C733.512 78.2203 732.873 78.3931 732.043 78.5659C731.214 78.756 730.177 78.8597 728.932 78.877C726.893 78.9115 724.992 78.5486 723.229 77.7882C721.466 77.0278 720.041 75.8526 718.952 74.2626C717.863 72.6727 717.319 70.6766 717.319 68.2743V29.0006ZM741.81 78.3585V38.5403H749.561V78.3585H741.81ZM745.724 32.3965C744.376 32.3965 743.218 31.9472 742.25 31.0485C741.3 30.1325 740.825 29.0438 740.825 27.7822C740.825 26.5033 741.3 25.4145 742.25 24.5158C743.218 23.5999 744.376 23.1419 745.724 23.1419C747.072 23.1419 748.221 23.5999 749.172 24.5158C750.14 25.4145 750.624 26.5033 750.624 27.7822C750.624 29.0438 750.14 30.1325 749.172 31.0485C748.221 31.9472 747.072 32.3965 745.724 32.3965ZM759.988 78.3585V38.5403H767.48V44.8656H767.895C768.621 42.7226 769.9 41.0376 771.732 39.8106C773.581 38.5662 775.672 37.9441 778.005 37.9441C778.489 37.9441 779.059 37.9614 779.716 37.9959C780.39 38.0305 780.917 38.0737 781.297 38.1256V45.5396C780.986 45.4532 780.433 45.3582 779.638 45.2545C778.843 45.1335 778.048 45.073 777.253 45.073C775.421 45.073 773.788 45.4618 772.354 46.2395C770.937 47 769.813 48.0628 768.984 49.4281C768.154 50.7761 767.739 52.3142 767.739 54.0425V78.3585H759.988ZM788.005 78.3585V38.5403H795.756V78.3585H788.005ZM791.919 32.3965C790.571 32.3965 789.414 31.9472 788.446 31.0485C787.495 30.1325 787.02 29.0438 787.02 27.7822C787.02 26.5033 787.495 25.4145 788.446 24.5158C789.414 23.5999 790.571 23.1419 791.919 23.1419C793.267 23.1419 794.417 23.5999 795.367 24.5158C796.335 25.4145 796.819 26.5033 796.819 27.7822C796.819 29.0438 796.335 30.1325 795.367 31.0485C794.417 31.9472 793.267 32.3965 791.919 32.3965ZM813.935 54.7165V78.3585H806.184V38.5403H813.624V45.0211H814.116C815.032 42.9127 816.467 41.2191 818.42 39.9402C820.39 38.6613 822.87 38.0219 825.86 38.0219C828.573 38.0219 830.949 38.5922 832.988 39.7328C835.028 40.8561 836.609 42.5325 837.732 44.7619C838.856 46.9913 839.417 49.7478 839.417 53.0314V78.3585H831.666V53.9647C831.666 51.0786 830.915 48.8232 829.411 47.1987C827.907 45.5569 825.842 44.736 823.215 44.736C821.418 44.736 819.819 45.1248 818.42 45.9025C817.037 46.6802 815.94 47.8209 815.127 49.3244C814.332 50.8107 813.935 52.608 813.935 54.7165ZM866.507 94.1199C863.345 94.1199 860.623 93.7051 858.341 92.8756C856.077 92.046 854.228 90.9486 852.794 89.5833C851.359 88.218 850.288 86.7231 849.579 85.0986L856.242 82.3507C856.708 83.1111 857.33 83.9147 858.108 84.7616C858.903 85.6257 859.975 86.3602 861.323 86.965C862.688 87.5699 864.442 87.8724 866.585 87.8724C869.523 87.8724 871.951 87.1551 873.869 85.7207C875.788 84.3036 876.747 82.0396 876.747 78.9288V71.1H876.254C875.788 71.9468 875.114 72.8887 874.232 73.9256C873.368 74.9626 872.176 75.8612 870.655 76.6216C869.134 77.3821 867.155 77.7623 864.719 77.7623C861.573 77.7623 858.739 77.0278 856.216 75.5588C853.71 74.0725 851.722 71.8863 850.253 69.0002C848.802 66.0968 848.076 62.528 848.076 58.2939C848.076 54.0597 848.793 50.4305 850.227 47.4061C851.679 44.3817 853.667 42.0659 856.19 40.4587C858.713 38.8341 861.573 38.0219 864.77 38.0219C867.242 38.0219 869.238 38.4366 870.759 39.2662C872.279 40.0784 873.463 41.029 874.31 42.1177C875.174 43.2065 875.84 44.1657 876.306 44.9952H876.877V38.5403H884.472V79.2399C884.472 82.6618 883.677 85.4701 882.087 87.665C880.497 89.8598 878.346 91.4843 875.632 92.5386C872.936 93.5928 869.895 94.1199 866.507 94.1199ZM866.429 71.3333C868.659 71.3333 870.543 70.8148 872.081 69.7779C873.636 68.7237 874.811 67.2201 875.606 65.2672C876.419 63.2971 876.825 60.9381 876.825 58.1902C876.825 55.5114 876.427 53.1524 875.632 51.1131C874.837 49.0738 873.671 47.4839 872.133 46.3432C870.594 45.1853 868.693 44.6064 866.429 44.6064C864.096 44.6064 862.152 45.2113 860.597 46.421C859.041 47.6135 857.866 49.238 857.071 51.2946C856.293 53.3512 855.905 55.6497 855.905 58.1902C855.905 60.7998 856.302 63.0897 857.097 65.0599C857.892 67.03 859.067 68.5681 860.623 69.6742C862.195 70.7803 864.131 71.3333 866.429 71.3333ZM904.64 25.2676L903.966 63.0897H896.786L896.112 25.2676H904.64ZM900.389 78.8511C898.955 78.8511 897.728 78.3499 896.708 77.3475C895.688 76.3279 895.187 75.1008 895.204 73.6664C895.187 72.2493 895.688 71.0395 896.708 70.0371C897.728 69.0175 898.955 68.5077 900.389 68.5077C901.789 68.5077 902.999 69.0175 904.018 70.0371C905.038 71.0395 905.556 72.2493 905.574 73.6664C905.556 74.6169 905.306 75.4897 904.822 76.2846C904.355 77.0623 903.733 77.6845 902.955 78.1511C902.178 78.6177 901.322 78.8511 900.389 78.8511Z" fill="white" fill-opacity="0.7"/>
<mask id="path-4-inside-1_7_28" fill="white">
<rect x="16.5274" y="0.0129852" width="14.691" height="14.691" rx="1.83638"/>
</mask>
<rect x="16.5274" y="0.0129852" width="14.691" height="14.691" rx="1.83638" fill="#22272B" stroke="white" stroke-width="4" mask="url(#path-4-inside-1_7_28)"/>
<mask id="path-5-inside-2_7_28" fill="white">
<rect x="478.377" y="0.0129852" width="14.691" height="14.691" rx="1.83638"/>
</mask>
<rect x="478.377" y="0.0129852" width="14.691" height="14.691" rx="1.83638" fill="#22272B" stroke="white" stroke-width="4" mask="url(#path-5-inside-2_7_28)"/>
<mask id="path-6-inside-3_7_28" fill="white">
<rect x="16.5274" y="96.423" width="14.691" height="14.691" rx="1.83638"/>
</mask>
<rect x="16.5274" y="96.423" width="14.691" height="14.691" rx="1.83638" fill="#22272B" stroke="white" stroke-width="4" mask="url(#path-6-inside-3_7_28)"/>
<mask id="path-7-inside-4_7_28" fill="white">
<rect x="478.377" y="96.423" width="14.691" height="14.691" rx="1.83638"/>
</mask>
<rect x="478.377" y="96.423" width="14.691" height="14.691" rx="1.83638" fill="#22272B" stroke="white" stroke-width="4" mask="url(#path-7-inside-4_7_28)"/>
<g clip-path="url(#clip0_7_28)">
<path d="M50.0249 129.974L25.5327 105.335C25.2211 105.001 24.7535 104.912 24.3305 105.09C23.9074 105.268 23.6402 105.669 23.6402 106.114V141.886C23.6402 142.331 23.9074 142.732 24.3305 142.91C24.7312 143.088 25.2212 142.999 25.5327 142.665L36.3539 131.866H49.2456C49.6909 131.866 50.0917 131.599 50.2699 131.176C50.448 130.753 50.3589 130.285 50.0249 129.974Z" fill="white"/>
<path d="M36.3539 131.866L25.5327 142.665C25.2211 142.999 24.7312 143.088 24.3305 142.91C23.9074 142.732 23.6402 142.331 23.6402 141.886V106.114C23.6402 105.669 23.9074 105.268 24.3305 105.09L36.3539 131.866Z" fill="#CCD8E3"/>
</g>
<defs>
<clipPath id="clip0_7_28">
<rect width="38" height="38" fill="white" transform="translate(18 105)"/>
</clipPath>
</defs>
</svg>
